<svg xmlns="http://www.w3.org/2000/svg" width="20.829" height="20.829" viewBox="0 0 20.829 20.829"><path d="M17.314,6.77l1.432-2.734L16.924,2.213,14.19,3.645a4.664,4.664,0,0,0-1.432-.521L11.717,0h-2.6L8.071,2.994a5.441,5.441,0,0,0-1.3.521L4.036,2.083,2.083,4.036,3.515,6.77a5.441,5.441,0,0,0-.521,1.3L0,9.113v2.6l2.994,1.041c.13.521.391.911.521,1.432L2.083,16.924l1.823,1.823,2.734-1.432a4.664,4.664,0,0,0,1.432.521l1.041,2.994h2.6l1.041-2.994c.521-.13.911-.391,1.432-.521l2.734,1.432,1.823-1.823L17.314,14.19a4.664,4.664,0,0,0,.521-1.432l2.994-1.041v-2.6L17.835,8.071A5.441,5.441,0,0,0,17.314,6.77Zm-6.9,7.551a3.836,3.836,0,0,1-3.906-3.906,3.836,3.836,0,0,1,3.906-3.906,3.836,3.836,0,0,1,3.906,3.906A3.836,3.836,0,0,1,10.415,14.32Z" fill="#a5a4bf"/></svg>