<svg xmlns="http://www.w3.org/2000/svg" width="23.999" height="23.999" viewBox="0 0 23.999 23.999"><path d="M-11798-3416a11.925,11.925,0,0,1-8.486-3.515A11.922,11.922,0,0,1-11810-3428a11.918,11.918,0,0,1,3.515-8.484A11.928,11.928,0,0,1-11798-3440a11.922,11.922,0,0,1,8.484,3.514A11.923,11.923,0,0,1-11786-3428a11.925,11.925,0,0,1-3.514,8.486A11.917,11.917,0,0,1-11798-3416Zm-.871-10.729v5.089h2.614v-5.089h4.849v-2.519h-4.849v-5.113h-2.614v5.113h-4.85v2.519Z" transform="translate(11810 3439.999)" fill="#fff"/></svg>