<svg xmlns="http://www.w3.org/2000/svg" width="20.687" height="16.55" viewBox="0 0 20.687 16.55"><path d="M27.527,23.061A1.729,1.729,0,0,1,25.8,24.785H8.564A1.729,1.729,0,0,1,6.84,23.061V9.959A1.729,1.729,0,0,1,8.564,8.235H25.8a1.729,1.729,0,0,1,1.724,1.724ZM8.564,9.614a.355.355,0,0,0-.345.345v13.1a.354.354,0,0,0,.345.345H25.8a.355.355,0,0,0,.345-.345V9.959a.355.355,0,0,0-.345-.345H8.564Zm3.1,5.517a2.069,2.069,0,1,1,2.068-2.068A2.07,2.07,0,0,1,11.667,15.131Zm13.1,6.9H9.6V19.958l3.448-3.447,1.724,1.723,5.517-5.516L24.769,17.2Z" transform="translate(-6.84 -8.235)" fill="#fff"/></svg>